{"title":"Dr. Jekyll and Mr. Hyde (1920)","uid":7570737,"size":567164188,"categoryP":"video","categoryS":"movies","magnet":"?xt=urn:btih:781651f6c21005bfff5dab24da82a0e2861719df&amp;dn=Dr.+Jekyll+and+Mr.+Hyde+%281920%29&amp;tr=udp%3A%2F%2Ftracker.openbittorrent.com%3A80&amp;tr=udp%3A%2F%2Fopen.demonii.com%3A1337&amp;tr=udp%3A%2F%2Ftracker.coppersurfer.tk%3A6969&amp;tr=udp%3A%2F%2Fexodus.desync.com%3A6969","seeders":0,"leechers":0,"uploader":"ravisugar","files":-1,"time":1345939852,"description":"Dr. Jekyll and Mr. Hyde (1920)\n\nDr. Henry Jekyll experiments with scientific means of revealing the hidden, dark side of man and releases a murderer from within himself. \n\n\n &lt;a href=&quot;\nhttp://www.imdb.com/title/tt0011130/&quot; rel=&quot;nofollow&quot; target=&quot;_NEW&quot;&gt;\nhttp://www.imdb.com/title/tt0011130/&lt;/a&gt;\n\nFormat                                   : AVI\nFormat/Info                              : Audio Video Interleave\nFile size                                : 541 MiB\nDuration                                 : 1h 4mn\nOverall bit rate                         : 1 164 Kbps\nWriting application                      : MEncoder SVN-r30881(20100311-gcc4.3.3)\nWriting library                          : MPlayer\n\nVideo\nID                                       : 0\nFormat                                   : MPEG-4 Visual\nFormat profile                           : Advanced Simple@L5\nFormat settings, BVOP                    : 2\nFormat settings, QPel                    : No\nFormat settings, GMC                     : No warppoints\nFormat settings, Matrix                  : Default (H.263)\nCodec ID                                 : XVID\nCodec ID/Hint                            : XviD\nDuration                                 : 1h 4mn\nBit rate                                 : 1 024 Kbps\nWidth                                    : 720 pixels\nHeight                                   : 576 pixels\nDisplay aspect ratio                     : 4:3\nOriginal display aspect ratio            : 5:4\nFrame rate                               : 24.000 fps\nStandard                                 : PAL\nColor space                              : YUV\nChroma subsampling                       : 4:2:0\nBit depth                                : 8 bits\nScan type                                : Progressive\nCompression mode                         : Lossy\nBits/(Pixel*Frame)                       : 0.103\nStream size                              : 476 MiB (88%)\nWriting library                          : XviD 1.2.1 (UTC 2008-12-04)\n\nAudio\nID                                       : 1\nFormat                                   : MPEG Audio\nFormat version                           : Version 1\nFormat profile                           : Layer 3\nMode                                     : Joint stereo\nMode extension                           : MS Stereo\nCodec ID                                 : 55\nCodec ID/Hint                            : MP3\nDuration                                 : 1h 4mn\nBit rate mode                            : Constant\nBit rate                                 : 128 Kbps\nChannel(s)                               : 2 channels\nSampling rate                            : 44.1 KHz\nCompression mode                         : Lossy\nDelay relative to video                  : 42ms\nStream size                              : 59.5 MiB (11%)\nAlignment                                : Aligned on interleaves\nInterleave, duration                     : 26 ms (0.63 video frame)\nInterleave, preload duration             : 522 ms","torrent":{"xt":"urn:btih:781651f6c21005bfff5dab24da82a0e2861719df","amp;dn":"Dr.+Jekyll+and+Mr.+Hyde+%281920%29","amp;tr":["udp%3A%2F%2Ftracker.openbittorrent.com%3A80","udp%3A%2F%2Fopen.demonii.com%3A1337","udp%3A%2F%2Ftracker.coppersurfer.tk%3A6969","udp%3A%2F%2Fexodus.desync.com%3A6969"],"infoHash":"781651f6c21005bfff5dab24da82a0e2861719df","infoHashBuffer":{"type":"Buffer","data":[120,22,81,246,194,16,5,191,255,93,171,36,218,130,160,226,134,23,25,223]},"announce":[],"urlList":[]}}